<svg xmlns="http://www.w3.org/2000/svg" version="1.1" xmlns:xlink="http://www.w3.org/1999/xlink" xmlns:svgjs="http://svgjs.dev/svgjs" width="1000" height="1000" viewBox="0 0 1000 1000"><rect width="1000" height="1000" fill="#ffffff"></rect><g transform="matrix(0.7,0,0,0.7,150.61876855048604,146.08680161943317)"><svg viewBox="0 0 244 247" data-background-color="#fafafa" preserveAspectRatio="xMidYMid meet" height="1012" width="1000" xmlns="http://www.w3.org/2000/svg" xmlns:xlink="http://www.w3.org/1999/xlink"><g id="tight-bounds" transform="matrix(1,0,0,1,-0.21568503759797863,-0.09999999999999432)"><svg viewBox="0 0 244.43135999999998 247.2" height="247.2" width="244.43135999999998"><g><svg></svg></g><g><svg viewBox="0 0 244.43135999999998 247.2" height="247.2" width="244.43135999999998"><g transform="matrix(1,0,0,1,0,88.11983078329777)"><svg viewBox="0 0 244.43135999999998 70.96033843340444" height="70.96033843340444" width="244.43135999999998"><g><svg viewBox="0 0 244.43135999999998 70.96033843340444" height="70.96033843340444" width="244.43135999999998"><g><svg viewBox="0 0 244.43135999999998 70.96033843340444" height="70.96033843340444" width="244.43135999999998"><g><svg viewBox="0 0 244.43135999999998 70.96033843340444" height="70.96033843340444" width="244.43135999999998"><g id="textblocktransform"><svg viewBox="0 0 244.43135999999998 70.96033843340444" height="70.96033843340444" width="244.43135999999998" id="textblock"><g><svg viewBox="0 0 244.43135999999998 70.96033843340444" height="70.96033843340444" width="244.43135999999998"><g transform="matrix(1,0,0,1,0,0)"><svg width="244.43135999999998" viewBox="1.7999999523162842 -36.5 164.0399932861328 47.625" height="70.96033843340444" data-palette-color="#ffffff"><path d="M11.9 0.5L11.9 0.5Q8.9 0.5 6.33-0.53 3.75-1.55 1.8-3.7L1.8-3.7 2.7-4.9Q4.8-2.9 7-1.95 9.2-1 11.85-1L11.85-1Q15.5-1 17.75-2.55 20-4.1 20-6.85L20-6.85Q20-8.65 18.98-9.65 17.95-10.65 16.03-11.28 14.1-11.9 11.35-12.55L11.35-12.55Q8.65-13.25 6.88-13.93 5.1-14.6 4.2-15.75 3.3-16.9 3.3-18.95L3.3-18.95Q3.3-21.55 4.58-23.18 5.85-24.8 7.98-25.6 10.1-26.4 12.65-26.4L12.65-26.4Q15.75-26.4 18-25.35 20.25-24.3 21.25-22.7L21.25-22.7 20.15-21.75Q19.05-23.3 16.98-24.1 14.9-24.9 12.45-24.9L12.45-24.9Q10.45-24.9 8.75-24.3 7.05-23.7 6-22.48 4.95-21.25 4.95-19.2L4.95-19.2Q4.95-17.55 5.7-16.65 6.45-15.75 7.95-15.23 9.45-14.7 11.75-14.1L11.75-14.1Q14.8-13.35 17.03-12.58 19.25-11.8 20.45-10.55 21.65-9.3 21.65-7.05L21.65-7.05Q21.65-3.55 18.98-1.53 16.3 0.5 11.9 0.5ZM48.5-14.7L48.5 0 46.8 0 46.8-14.5Q46.8-19.6 45.05-22.2 43.3-24.8 39.95-24.8L39.95-24.8Q37.7-24.8 35.52-23.68 33.35-22.55 31.77-20.63 30.2-18.7 29.5-16.25L29.5-16.25 29.5 0 27.8 0 27.8-36.5 29.5-36.5 29.5-19.5Q31.1-22.65 34.02-24.53 36.95-26.4 40.25-26.4L40.25-26.4Q42.35-26.4 43.87-25.63 45.4-24.85 46.42-23.33 47.45-21.8 47.97-19.65 48.5-17.5 48.5-14.7L48.5-14.7ZM67.09 0.5L67.09 0.5Q64.5 0.5 62.17-0.58 59.85-1.65 58.12-3.53 56.4-5.4 55.42-7.88 54.45-10.35 54.45-13.15L54.45-13.15Q54.45-16.8 56.1-19.8 57.75-22.8 60.57-24.6 63.4-26.4 66.9-26.4L66.9-26.4Q70.5-26.4 73.32-24.58 76.15-22.75 77.84-19.73 79.55-16.7 79.55-13L79.55-13Q79.55-12.8 79.55-12.6 79.55-12.4 79.5-12.2L79.5-12.2 56.2-12.2Q56.45-9.05 57.97-6.5 59.5-3.95 61.92-2.45 64.34-0.95 67.2-0.95L67.2-0.95Q70.05-0.95 72.55-2.43 75.05-3.9 76.09-6.2L76.09-6.2 77.65-5.8Q76.9-4 75.3-2.55 73.7-1.1 71.57-0.3 69.45 0.5 67.09 0.5ZM56.15-13.65L56.15-13.65 77.84-13.65Q77.65-16.95 76.17-19.48 74.7-22 72.3-23.45 69.9-24.9 66.95-24.9L66.95-24.9Q64.05-24.9 61.67-23.45 59.3-22 57.82-19.45 56.35-16.9 56.15-13.65ZM105.94-14.7L105.94 0 104.24 0 104.24-14.5Q104.24-19.8 102.72-22.3 101.19-24.8 97.89-24.8L97.89-24.8Q95.54-24.8 93.29-23.68 91.04-22.55 89.37-20.63 87.69-18.7 86.94-16.25L86.94-16.25 86.94 0 85.24 0 85.24-26 86.89-26 86.89-19.5Q87.94-21.55 89.72-23.1 91.49-24.65 93.69-25.53 95.89-26.4 98.19-26.4L98.19-26.4Q100.24-26.4 101.72-25.65 103.19-24.9 104.12-23.45 105.04-22 105.49-19.8 105.94-17.6 105.94-14.7L105.94-14.7ZM111.89-12.9L111.89-12.9Q111.89-16.55 113.47-19.6 115.04-22.65 117.74-24.53 120.44-26.4 123.89-26.4L123.89-26.4Q127.39-26.4 130.09-24.53 132.79-22.65 134.29-20.1L134.29-20.1 134.29-36.5 135.99-36.5 135.99-2.6Q135.99-2.1 136.24-1.8 136.49-1.5 136.89-1.5L136.89-1.5 136.89 0Q136.29 0.05 135.99-0.05L135.99-0.05Q135.29-0.25 134.84-0.85 134.39-1.45 134.39-2.15L134.39-2.15 134.39-5.3Q132.79-2.7 130.04-1.1 127.29 0.5 124.39 0.5L124.39 0.5Q121.69 0.5 119.39-0.63 117.09-1.75 115.42-3.68 113.74-5.6 112.82-8 111.89-10.4 111.89-12.9ZM134.29-8.6L134.29-8.6 134.29-17.55Q133.59-19.6 131.94-21.23 130.29-22.85 128.24-23.83 126.19-24.8 124.14-24.8L124.14-24.8Q121.74-24.8 119.82-23.8 117.89-22.8 116.49-21.1 115.09-19.4 114.37-17.28 113.64-15.15 113.64-12.9L113.64-12.9Q113.64-10.55 114.47-8.43 115.29-6.3 116.82-4.63 118.34-2.95 120.32-2.02 122.29-1.1 124.59-1.1L124.59-1.1Q126.04-1.1 127.67-1.68 129.29-2.25 130.77-3.3 132.24-4.35 133.19-5.73 134.14-7.1 134.29-8.6ZM146.19 11.1L146.19 9.5Q146.99 9.55 147.64 9.5 148.29 9.45 148.54 9.15L148.54 9.15Q148.84 8.95 149.26 8.28 149.69 7.6 150.51 5.68 151.34 3.75 152.94 0L152.94 0 141.09-26 142.94-26 153.84-1.9 164.09-26 165.84-26 150.99 8.8Q150.74 9.4 150.34 9.88 149.94 10.35 149.46 10.63 148.99 10.9 148.24 10.95L148.24 10.95Q147.79 11.05 147.29 11.1 146.79 11.15 146.19 11.1L146.19 11.1Z" opacity="1" transform="matrix(1,0,0,1,0,0)" fill="#000000" class="undefined-text-0" data-fill-palette-color="primary" id="text-0"></path></svg></g></svg></g></svg></g></svg></g><g></g></svg></g></svg></g></svg></g><path d="M0 82.12L0 1 244.431 1 244.431 82.12 240.476 82.12 240.476 4.956 3.956 4.956 3.956 82.12 0 82.12M0 165.08L0 246.2 244.431 246.2 244.431 165.08 240.476 165.08 240.476 242.244 3.956 242.244 3.956 165.08 0 165.08" fill="#000000" stroke="transparent" data-fill-palette-color="primary"></path></svg></g><defs></defs></svg><rect width="244.43135999999998" height="247.2" fill="none" stroke="none" visibility="hidden"></rect></g></svg></g></svg>